<svg width="56" height="56" viewBox="0 0 56 56" fill="none" xmlns="http://www.w3.org/2000/svg">
<rect x="0.5" y="0.5" width="55" height="55" rx="27.5" fill="white"/>
<rect x="0.5" y="0.5" width="55" height="55" rx="27.5" stroke="#F0F1F2"/>
<path d="M25 26H26C26.2652 26 26.5196 25.8946 26.7071 25.7071C26.8946 25.5196 27 25.2652 27 25C27 24.7348 26.8946 24.4804 26.7071 24.2929C26.5196 24.1054 26.2652 24 26 24H25C24.7348 24 24.4804 24.1054 24.2929 24.2929C24.1054 24.4804 24 24.7348 24 25C24 25.2652 24.1054 25.5196 24.2929 25.7071C24.4804 25.8946 24.7348 26 25 26ZM25 28C24.7348 28 24.4804 28.1054 24.2929 28.2929C24.1054 28.4804 24 28.7348 24 29C24 29.2652 24.1054 29.5196 24.2929 29.7071C24.4804 29.8946 24.7348 30 25 30H31C31.2652 30 31.5196 29.8946 31.7071 29.7071C31.8946 29.5196 32 29.2652 32 29C32 28.7348 31.8946 28.4804 31.7071 28.2929C31.5196 28.1054 31.2652 28 31 28H25ZM36 24.94C35.9896 24.8481 35.9695 24.7576 35.94 24.67V24.58C35.8919 24.4772 35.8278 24.3827 35.75 24.3L29.75 18.3C29.6673 18.2222 29.5728 18.1581 29.47 18.11C29.4402 18.1058 29.4099 18.1058 29.38 18.11C29.2784 18.0517 29.1662 18.0143 29.05 18H23C22.2044 18 21.4413 18.3161 20.8787 18.8787C20.3161 19.4413 20 20.2044 20 21V35C20 35.7956 20.3161 36.5587 20.8787 37.1213C21.4413 37.6839 22.2044 38 23 38H33C33.7956 38 34.5587 37.6839 35.1213 37.1213C35.6839 36.5587 36 35.7956 36 35V25C36 25 36 25 36 24.94ZM30 21.41L32.59 24H31C30.7348 24 30.4804 23.8946 30.2929 23.7071C30.1054 23.5196 30 23.2652 30 23V21.41ZM34 35C34 35.2652 33.8946 35.5196 33.7071 35.7071C33.5196 35.8946 33.2652 36 33 36H23C22.7348 36 22.4804 35.8946 22.2929 35.7071C22.1054 35.5196 22 35.2652 22 35V21C22 20.7348 22.1054 20.4804 22.2929 20.2929C22.4804 20.1054 22.7348 20 23 20H28V23C28 23.7956 28.3161 24.5587 28.8787 25.1213C29.4413 25.6839 30.2044 26 31 26H34V35ZM31 32H25C24.7348 32 24.4804 32.1054 24.2929 32.2929C24.1054 32.4804 24 32.7348 24 33C24 33.2652 24.1054 33.5196 24.2929 33.7071C24.4804 33.8946 24.7348 34 25 34H31C31.2652 34 31.5196 33.8946 31.7071 33.7071C31.8946 33.5196 32 33.2652 32 33C32 32.7348 31.8946 32.4804 31.7071 32.2929C31.5196 32.1054 31.2652 32 31 32Z" fill="black"/>
</svg>
