<svg width="14" height="24" viewBox="0 0 99 24" fill="none" xmlns="http://www.w3.org/2000/svg">
<g clip-path="url(#clip0_1558_20765)">
<path d="M0 23.8247V10.1715C0 10.0743 0.079067 9.99523 0.17631 9.99523H2.72554C2.82278 9.99523 2.90185 10.0743 2.90185 10.1715V12.8553H3.11088C3.48622 10.8513 4.82218 9.78711 7.28507 9.78711C10.4995 9.78711 12.2945 11.9156 12.2945 15.2345C12.2945 18.5535 10.5414 20.6611 7.38958 20.6611C4.9685 20.6611 3.63254 19.4714 3.2781 17.6347H3.13178V23.8247C3.13178 23.9219 3.05271 24.001 2.95547 24.001H0.17631C0.079067 24.001 0 23.9219 0 23.8247ZM6.17813 17.802C8.18207 17.802 9.12087 17.134 9.12087 15.2345C9.12087 13.3351 8.18207 12.6671 6.19903 12.6671C4.216 12.6671 3.13087 13.356 3.13087 15.2136V15.3809C3.13087 17.1758 4.216 17.802 6.17813 17.802Z" fill="#F1F5F5"/>
<path d="M13.5868 20.2757V10.1706C13.5868 10.0733 13.6659 9.99425 13.7632 9.99425H16.3124C16.4096 9.99425 16.4887 10.0733 16.4887 10.1706V12.7707H16.6768C16.9695 11.0803 18.0755 9.78613 20.183 9.78613C22.5205 9.78613 23.4811 11.3929 23.4811 13.4387V14.9955C23.4811 15.0927 23.4021 15.1718 23.3048 15.1718H20.5257C20.4284 15.1718 20.3493 15.0927 20.3493 14.9955V14.0857C20.3493 12.9379 19.8904 12.4371 18.6171 12.4371C17.2185 12.4371 16.7177 13.0842 16.7177 14.3993V20.2757C16.7177 20.3729 16.6386 20.452 16.5414 20.452H13.7622C13.665 20.452 13.5859 20.3729 13.5859 20.2757H13.5868Z" fill="#F1F5F5"/>
<path d="M24.2109 15.2345C24.2109 11.8956 26.6111 9.78711 30.18 9.78711C33.749 9.78711 36.1491 11.8956 36.1491 15.2345C36.1491 18.5735 33.749 20.6611 30.18 20.6611C26.6111 20.6611 24.2109 18.5326 24.2109 15.2345ZM33.0392 15.2345C33.0392 13.3978 32.2876 12.5417 30.18 12.5417C28.0725 12.5417 27.3209 13.3978 27.3209 15.2345C27.3209 17.0713 28.0516 17.8856 30.18 17.8856C32.3085 17.8856 33.0392 17.0713 33.0392 15.2345Z" fill="#F1F5F5"/>
<path d="M35.8134 23.9264V21.7361C35.8134 21.6952 35.8461 21.6625 35.887 21.6625H36.3769C37.0658 21.6625 37.4202 21.3908 37.4202 20.661V10.0697C37.4202 10.0288 37.4529 9.99604 37.4938 9.99604H40.4765C40.5174 9.99604 40.5502 10.0288 40.5502 10.0697V20.1602C40.5502 23.1239 38.9434 24.0009 36.3342 24.0009H35.8861C35.8452 24.0009 35.8125 23.9682 35.8125 23.9273L35.8134 23.9264ZM37.4202 8.85729V6.54163C37.4202 6.50074 37.4529 6.46802 37.4938 6.46802H40.4765C40.5174 6.46802 40.5502 6.50074 40.5502 6.54163V8.85729C40.5502 8.89819 40.5174 8.93091 40.4765 8.93091H37.4938C37.4529 8.93091 37.4202 8.89819 37.4202 8.85729Z" fill="#F1F5F5"/>
<path d="M50.271 16.5832L53.072 16.5696C53.1983 16.5696 53.3019 16.6723 53.3019 16.7995C53.3019 19.0743 51.0898 20.6611 47.7708 20.6611C44.2855 20.6611 41.9062 18.9498 41.9062 15.2345C41.9062 11.8956 44.2646 9.78711 47.7081 9.78711C51.1516 9.78711 53.4055 11.582 53.4055 14.8592C53.4055 15.2345 53.3637 15.5063 53.3219 15.8607H44.8063C44.8899 17.4675 45.6415 18.1564 47.6654 18.1564C49.523 18.1564 50.1701 17.6765 50.1701 16.7786C50.1483 16.5496 50.2701 16.5832 50.2701 16.5832H50.271ZM44.849 14.2112H50.401C50.3173 12.8335 49.483 12.2282 47.6463 12.2282C45.8096 12.2282 44.9953 12.8544 44.8499 14.2112H44.849Z" fill="#F1F5F5"/>
<path d="M54.4297 15.2345C54.4297 11.8956 56.7254 9.78711 60.3152 9.78711C63.905 9.78711 66.1325 11.712 65.9626 14.5875C64.9574 14.5875 63.9514 14.5875 62.9462 14.5893C62.928 14.5893 62.9089 14.5893 62.8926 14.582C62.8226 14.5511 62.849 14.4384 62.8499 14.3784C62.8517 14.2748 62.8471 14.1712 62.8326 14.0685C62.8053 13.8831 62.7535 13.7005 62.6636 13.5351C62.5145 13.2615 62.2764 13.0543 61.9992 12.9162C61.4666 12.6499 60.8377 12.6044 60.2525 12.6044C58.3949 12.6044 57.5387 13.2933 57.5387 15.2345C57.5387 17.1758 58.3949 17.8438 60.2525 17.8438C61.0177 17.8438 61.991 17.7701 62.5172 17.1303C62.6772 16.9359 62.7753 16.6987 62.8253 16.4533C62.8617 16.2742 62.858 16.0907 62.859 15.9089C62.859 15.898 62.859 15.8853 62.8662 15.8771C62.8753 15.8662 62.8917 15.8653 62.9053 15.8653C63.5124 15.8635 64.1195 15.8616 64.7275 15.8616H65.9626C66.1343 18.7144 63.7959 20.662 60.3152 20.662C56.8344 20.662 54.4297 18.5336 54.4297 15.2355V15.2345Z" fill="#F1F5F5"/>
<path d="M72.1119 20.4521C69.6699 20.4521 68.1886 19.3042 68.1886 16.6741V12.5835H66.7154C66.6181 12.5835 66.5391 12.5045 66.5391 12.4072V10.1706C66.5391 10.0734 66.6181 9.99432 66.7154 9.99432H68.1886V8.14579C68.1886 8.04855 68.2676 7.96948 68.3649 7.96948H71.144C71.2413 7.96948 71.3203 8.04855 71.3203 8.14579V9.99432H74.5257C74.623 9.99432 74.702 10.0734 74.702 10.1706V12.4072C74.702 12.5045 74.623 12.5835 74.5257 12.5835H71.3203V16.3197C71.3203 17.363 71.7166 17.6347 72.8235 17.6347H74.5257C74.623 17.6347 74.702 17.7138 74.702 17.811V20.2767C74.702 20.3739 74.623 20.453 74.5257 20.453H72.1137L72.1119 20.4521Z" fill="#F1F5F5"/>
<path d="M98.1559 12.3454H90.9226C90.51 12.3454 90.1756 12.0109 90.1756 11.5983V8.98728C90.1756 8.57467 90.51 8.24023 90.9226 8.24023H98.0505V0.0354438H89.8457V6.93972C89.8457 7.3814 89.4876 7.73947 89.0459 7.73947H86.0859C85.6733 7.73947 85.3389 7.40503 85.3389 6.99243V0H77.125V8.21387H84.3583C84.7709 8.21387 85.1053 8.54832 85.1053 8.96092V11.5719C85.1053 11.9846 84.7709 12.319 84.3583 12.319H77.2304V20.5329H85.4443V13.5577C85.4443 13.1451 85.7787 12.8107 86.1913 12.8107H89.205C89.6176 12.8107 89.952 13.1451 89.952 13.5577V20.5501H98.1568V12.3454H98.1559Z" fill="#F1F5F5"/>
</g>
<defs>
<clipPath id="clip0_1558_20765">
<rect width="14" height="14" fill="white"/>
</clipPath>
</defs>
</svg>
